# Blender v2.90.1 OBJ File: ''
# www.blender.org
mtllib Win.mtl
o W
v -33.566238 -0.000007 -10.184002
v -27.815643 -0.000010 11.487888
v -33.566238 4.999993 -10.184002
v -27.815643 4.999990 11.487888
v -30.624420 -0.000007 -10.184002
v -30.624420 4.999993 -10.184002
v -27.327805 -0.000009 4.022469
v -27.327805 4.999991 4.022469
v -26.411255 -0.000010 8.457371
v -26.616989 -0.000010 7.343811
v -26.411255 4.999990 8.457371
v -26.616989 4.999990 7.343811
v -26.835556 -0.000009 6.232899
v -26.835556 4.999990 6.232899
v -27.075348 -0.000009 5.126377
v -27.075348 4.999990 5.126377
v -25.435577 -0.000009 4.451176
v -25.686874 -0.000009 5.450916
v -25.435577 4.999991 4.451176
v -25.686874 4.999990 5.450916
v -25.932861 -0.000010 6.451958
v -25.932861 4.999990 6.451958
v -26.173416 -0.000010 7.454327
v -26.173416 4.999990 7.454327
v -21.311111 -0.000007 -10.184002
v -21.311111 4.999993 -10.184002
v -17.851898 -0.000007 -10.184002
v -17.851898 4.999993 -10.184002
v -14.747467 -0.000009 0.784988
v -14.747467 4.999991 0.784988
v -13.062195 -0.000010 8.457371
v -13.393326 -0.000010 6.519592
v -13.062195 4.999990 8.457371
v -13.393326 4.999990 6.519592
v -13.775116 -0.000009 4.592869
v -13.775116 4.999991 4.592869
v -14.237869 -0.000009 2.683815
v -14.237869 4.999991 2.683815
v -11.983047 -0.000009 3.741592
v -12.270966 -0.000009 4.916401
v -11.983047 4.999991 3.741592
v -12.270966 4.999991 4.916401
v -12.549438 -0.000009 6.093365
v -12.549438 4.999990 6.093365
v -12.811218 -0.000010 7.274136
v -12.811218 4.999990 7.274136
v -8.582947 -0.000007 -10.184002
v -8.582947 4.999993 -10.184002
v -5.700256 -0.000007 -10.184002
v -5.700256 4.999993 -10.184002
v -11.643036 -0.000010 11.487888
v -11.643036 4.999990 11.487888
v -14.407455 -0.000010 11.487888
v -14.407455 4.999990 11.487888
v -18.975403 -0.000008 -5.024731
v -18.975403 4.999992 -5.024731
v -19.655426 -0.000007 -7.567410
v -19.494232 -0.000007 -6.929413
v -19.655426 4.999993 -7.567410
v -19.494232 4.999993 -6.929413
v -19.326904 -0.000007 -6.293034
v -19.326904 4.999992 -6.293034
v -19.152863 -0.000008 -5.658432
v -19.152863 4.999992 -5.658432
v -20.291092 -0.000008 -5.024731
v -20.121094 -0.000008 -5.657623
v -20.291092 4.999992 -5.024731
v -20.121094 4.999992 -5.657623
v -19.957550 -0.000007 -6.292126
v -19.957550 4.999992 -6.292126
v -19.803757 -0.000007 -6.929085
v -19.803757 4.999993 -6.929085
v -24.888611 -0.000010 11.487888
v -24.888611 4.999990 11.487888
vt -0.000000 0.000000
vt 2.242187 0.000000
vt -0.000000 0.500000
vt 2.242187 0.500000
vt -0.000000 0.000000
vt 0.294182 0.000000
vt -0.000000 0.500000
vt 0.294182 0.500000
vt -0.000000 0.000000
vt 1.458395 0.000000
vt -0.000000 0.500000
vt 1.458395 0.500000
vt -0.452862 0.000000
vt -0.339647 0.000000
vt -0.452862 0.500000
vt -0.339647 0.500000
vt -0.226431 0.000000
vt -0.226431 0.500000
vt -0.113216 0.000000
vt -0.113216 0.500000
vt -0.412330 0.000000
vt -0.309248 0.000000
vt -0.412330 0.500000
vt -0.309248 0.500000
vt -0.206165 0.000000
vt -0.206165 0.500000
vt -0.103083 0.000000
vt -0.103083 0.500000
vt 0.000000 0.000000
vt 0.000000 0.500000
vt 0.000000 0.000000
vt 1.520525 0.000000
vt 0.000000 0.500000
vt 1.520525 0.500000
vt -0.000000 0.000000
vt 0.345922 0.000000
vt -0.000000 0.500000
vt 0.345922 0.500000
vt -0.000000 0.000000
vt 1.139984 0.000000
vt -0.000000 0.500000
vt 1.139984 0.500000
vt -0.785531 0.000000
vt -0.589148 0.000000
vt -0.785531 0.500000
vt -0.589148 0.500000
vt -0.392765 0.000000
vt -0.392765 0.500000
vt -0.196383 0.000000
vt -0.196383 0.500000
vt -0.483768 0.000000
vt -0.362826 0.000000
vt -0.483768 0.500000
vt -0.362826 0.500000
vt -0.241884 0.000000
vt -0.241884 0.500000
vt -0.120942 0.000000
vt -0.120942 0.500000
vt 0.000000 0.000000
vt 0.000000 0.500000
vt 0.000000 0.000000
vt 1.433467 0.000000
vt 0.000000 0.500000
vt 1.433467 0.500000
vt -0.000000 0.000000
vt 0.288269 0.000000
vt -0.000000 0.500000
vt 0.288269 0.500000
vt 0.000000 0.000000
vt 2.247192 0.000000
vt 0.000000 0.500000
vt 2.247192 0.500000
vt 0.000000 0.000000
vt 0.276442 0.000000
vt 0.000000 0.500000
vt 0.276442 0.500000
vt 0.000000 0.000000
vt 1.713280 0.000000
vt 0.000000 0.500000
vt 1.713280 0.500000
vt -0.263206 0.000000
vt -0.197405 0.000000
vt -0.263206 0.500000
vt -0.197405 0.500000
vt -0.131603 0.000000
vt -0.131603 0.500000
vt -0.065802 0.000000
vt -0.065802 0.500000
vt -0.262094 0.000000
vt -0.196570 0.000000
vt -0.262094 0.500000
vt -0.196570 0.500000
vt -0.131047 0.000000
vt -0.131047 0.500000
vt -0.065523 0.000000
vt -0.065523 0.500000
vt 0.000000 0.000000
vt 0.000000 0.500000
vt 0.000000 0.000000
vt 1.714071 0.000000
vt 0.000000 0.500000
vt 1.714071 0.500000
vt 0.000000 0.000000
vt 0.292704 0.000000
vt 0.000000 0.500000
vt 0.292704 0.500000
vt -0.525536 -1.083595
vt -0.677801 -0.780543
vt -0.818240 -1.083595
vt -0.698374 -0.669187
vt -0.720230 -0.558096
vt -0.065784 0.567667
vt -0.580233 -0.379923
vt -0.605363 -0.479897
vt -0.629961 -0.580001
vt -0.167787 1.083595
vt -0.048785 0.630956
vt -0.032430 0.694407
vt -0.017051 0.758103
vt -0.002218 0.821935
vt 0.178135 1.083595
vt 0.013901 0.758135
vt 0.030634 0.694498
vt 0.048039 0.631038
vt 0.065784 0.567667
vt 0.488578 -0.013305
vt 0.539538 -0.203187
vt 0.522579 -1.083595
vt 0.585813 -0.394093
vt 0.623992 -0.586765
vt 0.657105 -0.780543
vt 0.799022 -1.083595
vt 0.682203 -0.662220
vt 0.708381 -0.544142
vt 0.736228 -0.426446
vt 0.765021 -0.308965
vt 1.393299 1.083595
vt 1.105030 1.083595
vt -0.654017 -0.680239
vt -0.744210 -0.447443
vt -0.769456 -0.337053
vt -1.393299 1.083595
vt -1.099117 1.083595
vt 0.818240 -1.083595
vt 0.677801 -0.780543
vt 0.525536 -1.083595
vt 0.654017 -0.680239
vt 0.629961 -0.580001
vt 1.393299 1.083595
vt 0.769456 -0.337053
vt 0.744210 -0.447443
vt 0.720230 -0.558096
vt 1.099117 1.083595
vt 0.698374 -0.669187
vt 0.605363 -0.479897
vt 0.580233 -0.379923
vt 0.065784 0.567667
vt 0.167787 1.083595
vt 0.048785 0.630956
vt 0.032430 0.694407
vt 0.017051 0.758103
vt 0.002218 0.821935
vt -0.178135 1.083595
vt -0.013901 0.758135
vt -0.030634 0.694498
vt -0.048039 0.631038
vt -0.065784 0.567667
vt -0.488578 -0.013305
vt -0.539538 -0.203187
vt -0.522579 -1.083595
vt -0.585813 -0.394093
vt -0.623992 -0.586765
vt -0.657105 -0.780543
vt -0.799022 -1.083595
vt -0.682203 -0.662220
vt -0.708381 -0.544142
vt -0.736228 -0.426446
vt -0.765021 -0.308965
vt -1.393299 1.083595
vt -1.105030 1.083595
vn -0.9666 0.0000 0.2565
vn 0.0000 0.0000 -1.0000
vn 0.9743 0.0000 -0.2254
vn 0.9741 0.0000 -0.2260
vn 0.9742 0.0000 -0.2257
vn 0.9837 0.0000 -0.1798
vn 0.9826 -0.0000 -0.1855
vn 0.9793 0.0000 -0.2024
vn 0.9757 0.0000 -0.2192
vn -0.9696 0.0000 -0.2447
vn -0.9703 0.0000 -0.2420
vn -0.9696 -0.0000 -0.2448
vn -0.9703 0.0000 -0.2421
vn -0.9719 -0.0000 -0.2355
vn -0.9727 0.0000 -0.2320
vn -0.9731 0.0000 -0.2304
vn -0.9625 0.0000 -0.2713
vn 0.9628 0.0000 -0.2701
vn 0.9622 0.0000 -0.2723
vn 0.9625 0.0000 -0.2713
vn 0.9864 0.0000 -0.1641
vn 0.9842 -0.0000 -0.1771
vn 0.9764 0.0000 -0.2159
vn 0.9679 0.0000 -0.2513
vn -0.9711 0.0000 -0.2387
vn -0.9710 0.0000 -0.2391
vn -0.9747 0.0000 -0.2237
vn -0.9746 0.0000 -0.2238
vn -0.9776 -0.0000 -0.2105
vn -0.9786 0.0000 -0.2059
vn -0.9786 -0.0000 -0.2060
vn -0.9715 0.0000 -0.2372
vn 0.9644 0.0000 0.2645
vn 0.0000 0.0000 1.0000
vn -0.9628 -0.0000 0.2703
vn -0.9638 0.0000 0.2666
vn -0.9639 0.0000 0.2663
vn -0.9699 0.0000 0.2433
vn -0.9687 0.0000 0.2482
vn -0.9699 -0.0000 0.2434
vn -0.9687 0.0000 0.2483
vn -0.9656 -0.0000 0.2601
vn -0.9655 -0.0000 0.2603
vn -0.9634 -0.0000 0.2680
vn 0.9635 -0.0000 0.2678
vn 0.9667 -0.0000 0.2560
vn 0.9655 -0.0000 0.2604
vn 0.9667 0.0000 0.2561
vn 0.9704 0.0000 0.2415
vn 0.9704 -0.0000 0.2416
vn 0.9734 0.0000 0.2292
vn 0.9734 0.0000 0.2291
vn 0.9744 0.0000 0.2249
vn 0.9634 0.0000 0.2682
vn -0.0000 1.0000 0.0000
vn -0.0000 -1.0000 -0.0000
usemtl Aluminum_-_Anodized_Glossy_(Red).007
s 1
f 1/1/1 2/2/1 3/3/1
f 3/3/1 2/2/1 4/4/1
f 5/5/2 1/6/2 6/7/2
f 6/7/2 1/6/2 3/8/2
f 7/9/3 5/10/4 8/11/5
f 8/11/5 5/10/4 6/12/4
f 9/13/6 10/14/7 11/15/6
f 11/15/6 10/14/7 12/16/7
f 12/16/7 10/14/7 13/17/8
f 12/16/7 13/17/8 14/18/8
f 14/18/8 13/17/8 15/19/9
f 14/18/8 15/19/9 16/20/9
f 16/20/9 15/19/9 7/9/3
f 16/20/9 7/9/3 8/11/5
f 17/21/10 18/22/11 19/23/12
f 19/23/12 18/22/11 20/24/13
f 20/24/13 18/22/11 21/25/14
f 20/24/13 21/25/14 22/26/14
f 22/26/14 21/25/14 23/27/15
f 22/26/14 23/27/15 24/28/15
f 24/28/15 23/27/15 9/29/16
f 24/28/15 9/29/16 11/30/16
f 25/31/17 17/32/17 26/33/17
f 26/33/17 17/32/17 19/34/17
f 27/35/2 25/36/2 28/37/2
f 28/37/2 25/36/2 26/38/2
f 29/39/18 27/40/19 30/41/20
f 30/41/20 27/40/19 28/42/19
f 31/43/21 32/44/22 33/45/21
f 33/45/21 32/44/22 34/46/22
f 34/46/22 32/44/22 35/47/23
f 34/46/22 35/47/23 36/48/23
f 36/48/23 35/47/23 37/49/24
f 36/48/23 37/49/24 38/50/24
f 38/50/24 37/49/24 29/39/18
f 38/50/24 29/39/18 30/41/20
f 39/51/25 40/52/14 41/53/26
f 41/53/26 40/52/14 42/54/14
f 42/54/14 40/52/14 43/55/27
f 42/54/14 43/55/27 44/56/28
f 44/56/28 43/55/27 45/57/29
f 44/56/28 45/57/29 46/58/29
f 46/58/29 45/57/29 31/59/30
f 46/58/29 31/59/30 33/60/31
f 47/61/32 39/62/25 48/63/32
f 48/63/32 39/62/25 41/64/26
f 49/65/2 47/66/2 50/67/2
f 50/67/2 47/66/2 48/68/2
f 51/69/33 49/70/33 52/71/33
f 52/71/33 49/70/33 50/72/33
f 53/73/34 51/74/34 54/75/34
f 54/75/34 51/74/34 52/76/34
f 55/77/35 53/78/36 56/79/37
f 56/79/37 53/78/36 54/80/36
f 57/81/38 58/82/39 59/83/40
f 59/83/40 58/82/39 60/84/41
f 60/84/41 58/82/39 61/85/42
f 60/84/41 61/85/42 62/86/43
f 62/86/43 61/85/42 63/87/44
f 62/86/43 63/87/44 64/88/44
f 64/88/44 63/87/44 55/77/35
f 64/88/44 55/77/35 56/79/37
f 65/89/45 66/90/46 67/91/47
f 67/91/47 66/90/46 68/92/48
f 68/92/48 66/90/46 69/93/49
f 68/92/48 69/93/49 70/94/50
f 70/94/50 69/93/49 71/95/51
f 70/94/50 71/95/51 72/96/52
f 72/96/52 71/95/51 57/97/53
f 72/96/52 57/97/53 59/98/53
f 73/99/54 65/100/45 74/101/54
f 74/101/54 65/100/45 67/102/47
f 2/103/34 73/104/34 4/105/34
f 4/105/34 73/104/34 74/106/34
usemtl Bronze_-_Polished.007
f 74/107/55 11/108/55 4/109/55
f 4/109/55 11/108/55 12/110/55
f 4/109/55 12/110/55 14/111/55
f 67/112/55 19/113/55 74/107/55
f 74/107/55 19/113/55 20/114/55
f 74/107/55 20/114/55 22/115/55
f 19/113/55 67/112/55 26/116/55
f 26/116/55 67/112/55 68/117/55
f 26/116/55 68/117/55 70/118/55
f 70/118/55 72/119/55 26/116/55
f 26/116/55 72/119/55 59/120/55
f 26/116/55 59/120/55 28/121/55
f 28/121/55 59/120/55 60/122/55
f 28/121/55 60/122/55 62/123/55
f 62/123/55 64/124/55 28/121/55
f 28/121/55 64/124/55 56/125/55
f 28/121/55 56/125/55 30/126/55
f 30/126/55 56/125/55 38/127/55
f 38/127/55 56/125/55 54/128/55
f 38/127/55 54/128/55 36/129/55
f 36/129/55 54/128/55 34/130/55
f 34/130/55 54/128/55 33/131/55
f 33/131/55 54/128/55 52/132/55
f 33/131/55 52/132/55 46/133/55
f 46/133/55 52/132/55 44/134/55
f 44/134/55 52/132/55 42/135/55
f 42/135/55 52/132/55 41/136/55
f 41/136/55 52/132/55 50/137/55
f 41/136/55 50/137/55 48/138/55
f 22/115/55 24/139/55 74/107/55
f 74/107/55 24/139/55 11/108/55
f 14/111/55 16/140/55 4/109/55
f 4/109/55 16/140/55 8/141/55
f 4/109/55 8/141/55 3/142/55
f 3/142/55 8/141/55 6/143/55
f 2/144/56 9/145/56 73/146/56
f 73/146/56 9/145/56 23/147/56
f 73/146/56 23/147/56 21/148/56
f 1/149/56 7/150/56 2/144/56
f 2/144/56 7/150/56 15/151/56
f 2/144/56 15/151/56 13/152/56
f 1/149/56 5/153/56 7/150/56
f 13/152/56 10/154/56 2/144/56
f 2/144/56 10/154/56 9/145/56
f 21/148/56 18/155/56 73/146/56
f 73/146/56 18/155/56 17/156/56
f 73/146/56 17/156/56 65/157/56
f 65/157/56 17/156/56 25/158/56
f 65/157/56 25/158/56 66/159/56
f 66/159/56 25/158/56 69/160/56
f 69/160/56 25/158/56 71/161/56
f 71/161/56 25/158/56 57/162/56
f 57/162/56 25/158/56 27/163/56
f 57/162/56 27/163/56 58/164/56
f 58/164/56 27/163/56 61/165/56
f 61/165/56 27/163/56 63/166/56
f 63/166/56 27/163/56 55/167/56
f 55/167/56 27/163/56 29/168/56
f 55/167/56 29/168/56 37/169/56
f 55/167/56 37/169/56 53/170/56
f 53/170/56 37/169/56 35/171/56
f 53/170/56 35/171/56 32/172/56
f 32/172/56 31/173/56 53/170/56
f 53/170/56 31/173/56 51/174/56
f 51/174/56 31/173/56 45/175/56
f 51/174/56 45/175/56 43/176/56
f 43/176/56 40/177/56 51/174/56
f 51/174/56 40/177/56 39/178/56
f 51/174/56 39/178/56 49/179/56
f 49/179/56 39/178/56 47/180/56
o I
v -1.366043 -0.000007 -10.184002
v -1.366043 -0.000010 11.487888
v -1.366043 4.999993 -10.184002
v -1.366043 4.999990 11.487888
v 1.501862 -0.000007 -10.184002
v 1.501862 4.999993 -10.184002
v 1.501862 -0.000010 11.487888
v 1.501862 4.999990 11.487888
vt 0.000000 0.000000
vt 2.167189 0.000000
vt 0.000000 0.500000
vt 2.167189 0.500000
vt -0.000000 0.000000
vt 0.286790 0.000000
vt -0.000000 0.500000
vt 0.286790 0.500000
vt -0.000000 0.000000
vt 2.167189 0.000000
vt -0.000000 0.500000
vt 2.167189 0.500000
vt 0.000000 0.000000
vt 0.286790 0.000000
vt 0.000000 0.500000
vt 0.286790 0.500000
vt 1.083595 0.143395
vt -1.083595 0.143395
vt 1.083595 -0.143395
vt -1.083595 -0.143395
vt -0.143395 -1.083595
vt 0.143395 -1.083595
vt -0.143395 1.083595
vt 0.143395 1.083595
vn -1.0000 0.0000 0.0000
vn 0.0000 0.0000 -1.0000
vn 1.0000 0.0000 0.0000
vn 0.0000 0.0000 1.0000
vn 0.0000 1.0000 0.0000
vn 0.0000 -1.0000 -0.0000
usemtl Aluminum_-_Anodized_Glossy_(Red).008
s 1
f 75/181/57 76/182/57 77/183/57
f 77/183/57 76/182/57 78/184/57
f 79/185/58 75/186/58 80/187/58
f 80/187/58 75/186/58 77/188/58
f 81/189/59 79/190/59 82/191/59
f 82/191/59 79/190/59 80/192/59
f 76/193/60 81/194/60 78/195/60
f 78/195/60 81/194/60 82/196/60
usemtl Bronze_-_Polished.008
f 82/197/61 80/198/61 78/199/61
f 78/199/61 80/198/61 77/200/61
f 81/201/62 76/202/62 79/203/62
f 79/203/62 76/202/62 75/204/62
o N
v 8.066345 -0.000007 -10.184002
v 8.066345 -0.000010 11.487888
v 8.066345 4.999993 -10.184002
v 8.066345 4.999990 11.487888
v 11.008163 -0.000007 -10.184002
v 11.008163 4.999993 -10.184002
v 22.391083 -0.000010 6.831238
v 22.391083 4.999990 6.831238
v 22.391083 -0.000007 -10.184002
v 22.391083 4.999993 -10.184002
v 25.140732 -0.000007 -10.184002
v 25.140732 4.999993 -10.184002
v 25.140732 -0.000010 11.487888
v 25.140732 4.999990 11.487888
v 22.198914 -0.000010 11.487888
v 22.198914 4.999990 11.487888
v 10.815994 -0.000008 -5.542141
v 10.815994 4.999992 -5.542141
v 10.815994 -0.000010 11.487888
v 10.815994 4.999990 11.487888
vt 0.000000 0.000000
vt 2.167189 0.000000
vt 0.000000 0.500000
vt 2.167189 0.500000
vt -0.000000 0.000000
vt 0.294182 0.000000
vt -0.000000 0.500000
vt 0.294182 0.500000
vt -0.000000 0.000000
vt 2.047167 0.000000
vt -0.000000 0.500000
vt 2.047167 0.500000
vt 0.000000 0.000000
vt 1.701524 0.000000
vt 0.000000 0.500000
vt 1.701524 0.500000
vt -0.000000 0.000000
vt 0.274964 0.000000
vt -0.000000 0.500000
vt 0.274964 0.500000
vt -0.000000 0.000000
vt 2.167189 0.000000
vt -0.000000 0.500000
vt 2.167189 0.500000
vt 0.000000 0.000000
vt 0.294182 0.000000
vt 0.000000 0.500000
vt 0.294182 0.500000
vt 0.000000 0.000000
vt 2.048396 0.000000
vt 0.000000 0.500000
vt 2.048396 0.500000
vt -0.000000 0.000000
vt 1.703003 0.000000
vt -0.000000 0.500000
vt 1.703003 0.500000
vt 0.000000 0.000000
vt 0.274964 0.000000
vt 0.000000 0.500000
vt 0.274964 0.500000
vt 1.083595 -0.578755
vt -0.619408 -0.578755
vt 1.083595 -0.853719
vt -1.083595 -0.853719
vt -1.083595 -0.559537
vt 0.617930 0.578755
vt 1.083595 0.559537
vt 1.083595 0.853719
vt -1.083595 0.853719
vt -1.083595 0.578755
vt 0.578755 -1.083595
vt 0.853719 -1.083595
vt 0.578755 0.619408
vt 0.853719 1.083595
vt 0.559537 1.083595
vt -0.578755 -0.617930
vt -0.559537 -1.083595
vt -0.853719 -1.083595
vt -0.853719 1.083595
vt -0.578755 1.083595
vn -1.0000 0.0000 0.0000
vn 0.0000 0.0000 -1.0000
vn 0.8312 0.0000 -0.5560
vn 1.0000 0.0000 0.0000
vn 0.0000 0.0000 1.0000
vn -0.8314 0.0000 0.5557
vn 0.0000 1.0000 0.0000
vn 0.0000 -1.0000 -0.0000
usemtl Aluminum_-_Anodized_Glossy_(Red).009
s 1
f 83/205/63 84/206/63 85/207/63
f 85/207/63 84/206/63 86/208/63
f 87/209/64 83/210/64 88/211/64
f 88/211/64 83/210/64 85/212/64
f 89/213/65 87/214/65 90/215/65
f 90/215/65 87/214/65 88/216/65
f 91/217/63 89/218/63 92/219/63
f 92/219/63 89/218/63 90/220/63
f 93/221/64 91/222/64 94/223/64
f 94/223/64 91/222/64 92/224/64
f 95/225/66 93/226/66 96/227/66
f 96/227/66 93/226/66 94/228/66
f 97/229/67 95/230/67 98/231/67
f 98/231/67 95/230/67 96/232/67
f 99/233/68 97/234/68 100/235/68
f 100/235/68 97/234/68 98/236/68
f 101/237/66 99/238/66 102/239/66
f 102/239/66 99/238/66 100/240/66
f 84/241/67 101/242/67 86/243/67
f 86/243/67 101/242/67 102/244/67
usemtl Bronze_-_Polished.009
f 102/245/69 100/246/69 86/247/69
f 86/247/69 100/246/69 85/248/69
f 85/248/69 100/246/69 88/249/69
f 88/249/69 100/246/69 90/250/69
f 90/250/69 100/246/69 98/251/69
f 90/250/69 98/251/69 96/252/69
f 96/252/69 94/253/69 90/250/69
f 90/250/69 94/253/69 92/254/69
f 101/255/70 84/256/70 99/257/70
f 99/257/70 84/256/70 83/258/70
f 99/257/70 83/258/70 87/259/70
f 87/259/70 89/260/70 99/257/70
f 99/257/70 89/260/70 97/261/70
f 97/261/70 89/260/70 95/262/70
f 95/262/70 89/260/70 93/263/70
f 93/263/70 89/260/70 91/264/70
